<!--?xml version="1.0" encoding="utf-8"?-->
<!-- Generator: Adobe Illustrator 21.0.0, SVG Export Plug-In . SVG Version: 6.00 Build 0)  -->
<svg version="1.1" id="Capa_1" xmlns="http://www.w3.org/2000/svg" xmlns:xlink="http://www.w3.org/1999/xlink" x="0px" y="0px" viewBox="0 0 51.7 51.7" style="" xml:space="preserve">
<style type="text/css">
	.st0{fill:none;stroke:#0BC8F4;stroke-miterlimit:10;}
	.st1{fill:none;stroke:#FFFFFF;stroke-miterlimit:10;}
</style>
<path class="st0 byhFyilb_0" d="M18.1,25.9A7.7,24.3 0,1,1 33.5,25.9A7.7,24.3 0,1,1 18.1,25.9"></path>
<path transform="matrix(0.866 -0.5 0.5 0.866 -9.1085 16.1675)" class="st0 byhFyilb_1" d="M1.1000000000000014,25.1A24.5,7.7 0,1,1 50.1,25.1A24.5,7.7 0,1,1 1.1000000000000014,25.1"></path>
<path transform="matrix(0.5 -0.866 0.866 0.5 -9.427 35.2917)" class="st0 byhFyilb_2" d="M18.099999999999998,25.8A7.8,24.3 0,1,1 33.699999999999996,25.8A7.8,24.3 0,1,1 18.099999999999998,25.8"></path>
<path class="st1 byhFyilb_3" d="M22.099999999999998,25.8A3.3,3.3 0,1,1 28.7,25.8A3.3,3.3 0,1,1 22.099999999999998,25.8"></path>
<style data-made-with="vivus-instant">.byhFyilb_0{stroke-dasharray:108 110;stroke-dashoffset:109;animation:byhFyilb_draw 3000ms ease 0ms forwards;}.byhFyilb_1{stroke-dasharray:109 111;stroke-dashoffset:110;animation:byhFyilb_draw 3000ms ease 666ms forwards;}.byhFyilb_2{stroke-dasharray:108 110;stroke-dashoffset:109;animation:byhFyilb_draw 3000ms ease 1333ms forwards;}.byhFyilb_3{stroke-dasharray:21 23;stroke-dashoffset:22;animation:byhFyilb_draw 3000ms ease 2000ms forwards;}@keyframes byhFyilb_draw{100%{stroke-dashoffset:0;}}@keyframes byhFyilb_fade{0%{stroke-opacity:1;}95.65217391304348%{stroke-opacity:1;}100%{stroke-opacity:0;}}</style></svg>
