<?xml version="1.0" encoding="utf-8"?>
<!-- Generator: Adobe Illustrator 21.0.0, SVG Export Plug-In . SVG Version: 6.00 Build 0)  -->
<svg version="1.1" id="Layer_1" xmlns="http://www.w3.org/2000/svg" xmlns:xlink="http://www.w3.org/1999/xlink" x="0px" y="0px"
	 viewBox="0 0 1600 300" style="enable-background:new 0 0 1600 300;" xml:space="preserve">
<style type="text/css">
	.st0{fill:none;stroke:#FFFFFF;stroke-width:8;stroke-miterlimit:10;}
	.st1{fill:none;stroke:#FFC185;stroke-width:4;stroke-miterlimit:10;}
</style>
<g>
	<g>
		<path class="st0" d="M150.8,195.2l6.3,33.1h10.2l27.5-147h-1l-27,146.4h-9.3L130.3,81.4h-1l21.3,113.2"/>
	</g>
	<g>
		<path class="st0" d="M222.6,234.4V149h65.5v79.4h0.6V97.9c-2.1-3.1-4.7-5.8-7.6-8.2c-7.5-6.3-16-9.3-25.8-9.3s-18.3,3-25.8,9.3
			c-2.9,2.4-5.4,5.2-7.6,8.2v136.5 M288.1,148.4h-65.5V98.1l0.8-1.1c7.9-10.6,18.6-16,31.9-16c13.2,0,23.9,5.4,31.9,16l0.9,1.1
			V148.4z"/>
	</g>
	<g>
		<path class="st0" d="M316.6,210.7c2.1,3.1,4.7,5.8,7.6,8.2c7.6,6.3,16.1,9.4,26,9.4h33.5v-0.6h-33.5c-13.4,0-24.2-5.4-32.1-16.1
			l-0.8-1.1V81.4h-0.7V210.7z"/>
	</g>
	<g>
		<path class="st0" d="M403,228.4h67.1v-0.6h-66.5v-79.3h47.6v-0.6h-47.6V99.3l0.8-1.1c8-10.7,18.8-16.1,32.1-16.1h31.4v-0.7h-31.5
			c-9.8,0-18.3,3.1-25.9,9.4c-2.9,2.4-5.4,5.2-7.6,8.3v129.3L403,228.4L403,228.4z"/>
	</g>
	<g>
		<path class="st0" d="M564.5,234.3V97.9c-2.1-3.1-4.7-5.8-7.6-8.2c-7.5-6.3-16-9.3-25.8-9.3s-18.3,3-25.8,9.3
			c-2.9,2.4-5.4,5.2-7.6,8.2v130.5h0.6V98.1l0.8-1.1c7.9-10.6,18.6-16,31.9-16c13.2,0,23.9,5.4,31.9,16l0.9,1.1v136.2"/>
	</g>
	<g>
		<path class="st0" d="M619.1,234.3V82H652v-0.6h-66.7V82h33.3v152.3"/>
	</g>
	<g>
		<path class="st0" d="M673.5,234.3V81.4h-0.6v152.9"/>
	</g>
	<g>
		<path class="st0" d="M766,234.9v-137c-2.1-3.1-4.7-5.8-7.6-8.2c-7.5-6.3-16-9.3-25.8-9.3s-18.3,3-25.8,9.3
			c-2.9,2.4-5.4,5.2-7.6,8.2v130.5h0.6V98.1l0.8-1.1c7.9-10.6,18.6-16,31.9-16c13.2,0,23.9,5.4,31.9,16l0.9,1.1v136.8"/>
	</g>
	<g>
		<path class="st0" d="M861.9,210.7c2.1,3.1,4.6,5.8,7.5,8.2c7.6,6.3,16.1,9.4,26,9.4h33.5v-0.6h-33.5c-13.4,0-24.2-5.4-32.1-16.1
			l-0.8-1.1V81.4h-0.6L861.9,210.7L861.9,210.7z"/>
	</g>
	<g>
		<path class="st0" d="M949.4,234.5v-85.6h65.5v79.5h0.6V97.9c-2.2-3.1-4.7-5.8-7.6-8.2c-7.5-6.3-16-9.3-25.8-9.3s-18.3,3-25.8,9.3
			c-2.9,2.4-5.4,5.2-7.6,8.2v136.6 M1014.9,148.4h-65.5V98.1l0.8-1.1c7.9-10.6,18.6-16,31.9-16c13.2,0,23.9,5.4,31.9,16l0.8,1.1
			L1014.9,148.4L1014.9,148.4z"/>
	</g>
	<g>
		<path class="st0" d="M1043.5,212.1c2.1,3,4.6,5.8,7.5,8.2c7.5,6.2,15.9,9.2,25.6,9.2h0.1c9.8,0,18.1-3,25.6-9.2
			c1.7-1.4,3.3-3,4.7-4.7l-0.5-0.2c-7.7,8.9-17.7,13.5-29.8,13.5h-0.1c-13.2-0.1-22.8-6.1-31.8-15.9l-0.8-1.1l-0.1-114.1l0.8-1.1
			c7.9-10.6,18.6-15.9,31.8-15.9c12.1,0,22.2,4.6,29.9,13.5l0.5-0.2c-1.4-1.7-3-3.2-4.7-4.7c-7.5-6.2-15.9-9.2-25.7-9.2
			s-18.2,3-25.7,9.2c-2.9,2.4-5.4,5.1-7.5,8.2L1043.5,212.1L1043.5,212.1z"/>
	</g>
	<g>
		<path class="st0" d="M1204,234.6l-0.2-153.2h-0.6V163l-7-5.7c-7.6-6.3-16.1-9.3-26-9.3s-18.4,3.1-26,9.3l-7,5.7V81.5h-0.6v146.9
			h0.6v-62.5l0.9-1.1c8-10.7,18.8-16.1,32.1-16.1c13.3,0,24.1,5.4,32.1,16.1l0.9,1.1l0.2,68.8"/>
	</g>
	<g>
		<path class="st0" d="M1231.3,228.4h67.1v-0.6h-66.5v-79.3h47.6v-0.6h-47.6V99.3l0.8-1.1c8-10.7,18.8-16.1,32.1-16.1h31.4v-0.7
			h-31.5c-9.8,0-18.3,3.1-25.9,9.4c-2.9,2.4-5.4,5.2-7.6,8.3L1231.3,228.4L1231.3,228.4z"/>
	</g>
	<g>
		<path class="st0" d="M1394,234.5l0.2-54.5l-0.3-2.9c-0.8-8.1-3.9-15.5-9.1-21.8c-1.1-1.3-2.4-2.6-3.7-3.9l-3.4-3.2l3.5-3.1
			c1.5-1.3,2.8-2.7,4-4.2l0.1-0.1c6.3-7.6,9.4-16.1,9.4-25.9c0-9.9-3.1-18.4-9.4-26c-2.4-2.9-5.2-5.4-8.3-7.6h-50.5v147h0.6v-79.9
			h49.4l1.1,0.9c10.5,8,15.9,18.8,15.9,32l-0.2,53.2 M1377.1,147.8h-50V82.1h49.8l1.1,0.8c10.7,8,16.1,18.8,16.1,32.1
			c0,13.2-5.3,23.9-15.9,31.9L1377.1,147.8z"/>
	</g>
	<g>
		<path class="st0" d="M1421.1,228.4h67.1v-0.6h-66.5v-79.3h47.6v-0.6h-47.6V99.3l0.8-1.1c8-10.7,18.8-16.1,32.1-16.1h31.4v-0.7
			h-31.4c-9.8,0-18.3,3.1-25.9,9.4c-2.9,2.4-5.4,5.2-7.6,8.3V228.4z"/>
	</g>
</g>
<path class="st1" d="M69,33.8h1468.3v245.8H67.9V33.8H69"/>
<line class="st0" x1="1420.2" y1="69.4" x2="1489.1" y2="58.4"/>
</svg>
