<!--?xml version="1.0" encoding="utf-8"?-->
<!-- Generator: Adobe Illustrator 21.0.0, SVG Export Plug-In . SVG Version: 6.00 Build 0)  -->
<svg version="1.1" id="Layer_1" xmlns="http://www.w3.org/2000/svg" xmlns:xlink="http://www.w3.org/1999/xlink" x="0px" y="0px" viewBox="0 0 1600 550" style="" xml:space="preserve">
<style type="text/css">
	.st0{fill:none;stroke:#FFFFFF;stroke-width:8;stroke-miterlimit:10;}
</style>
<g>
	<g>
		<path class="st0 MtzSyewZ_0" d="M137.2,428.8l6.3,33.1h10.2l27.5-147h-1l-27,146.4h-9.3L116.7,315h-1L137,428.2"></path>
	</g>
	<g>
		<path class="st0 MtzSyewZ_1" d="M209,468v-85.4h65.5V462h0.6V331.5c-2.1-3.1-4.7-5.8-7.6-8.2c-7.5-6.3-16-9.3-25.8-9.3s-18.3,3-25.8,9.3
			c-2.9,2.4-5.4,5.2-7.6,8.2V468 M274.5,382H209v-50.3l0.8-1.1c7.9-10.6,18.6-16,31.9-16c13.2,0,23.9,5.4,31.9,16l0.9,1.1V382z"></path>
	</g>
	<g>
		<path class="st0 MtzSyewZ_2" d="M303,444.3c2.1,3.1,4.7,5.8,7.6,8.2c7.6,6.3,16.1,9.4,26,9.4h33.5v-0.6h-33.5c-13.4,0-24.2-5.4-32.1-16.1
			l-0.8-1.1V315H303V444.3z"></path>
	</g>
	<g>
		<path class="st0 MtzSyewZ_3" d="M389.4,462h67.1v-0.6H390v-79.3h47.6v-0.6H390v-48.6l0.8-1.1c8-10.7,18.8-16.1,32.1-16.1h31.4V315h-31.5
			c-9.8,0-18.3,3.1-25.9,9.4c-2.9,2.4-5.4,5.2-7.6,8.3V462H389.4z"></path>
	</g>
	<g>
		<path class="st0 MtzSyewZ_4" d="M550.9,467.9V331.5c-2.1-3.1-4.7-5.8-7.6-8.2c-7.5-6.3-16-9.3-25.8-9.3s-18.3,3-25.8,9.3
			c-2.9,2.4-5.4,5.2-7.6,8.2V462h0.6V331.7l0.8-1.1c7.9-10.6,18.6-16,31.9-16c13.2,0,23.9,5.4,31.9,16l0.9,1.1v136.2"></path>
	</g>
	<g>
		<path class="st0 MtzSyewZ_5" d="M605.5,467.9V315.6h32.9V315h-66.7v0.6H605v152.3"></path>
	</g>
	<g>
		<path class="st0 MtzSyewZ_6" d="M659.9,467.9V315h-0.6v152.9"></path>
	</g>
	<g>
		<path class="st0 MtzSyewZ_7" d="M752.4,468.5v-137c-2.1-3.1-4.7-5.8-7.6-8.2c-7.5-6.3-16-9.3-25.8-9.3s-18.3,3-25.8,9.3
			c-2.9,2.4-5.4,5.2-7.6,8.2V462h0.6V331.7l0.8-1.1c7.9-10.6,18.6-16,31.9-16c13.2,0,23.9,5.4,31.9,16l0.9,1.1v136.8"></path>
	</g>
	<g>
		<path class="st0 MtzSyewZ_8" d="M848.3,444.3c2.1,3.1,4.6,5.8,7.5,8.2c7.6,6.3,16.1,9.4,26,9.4h33.5v-0.6h-33.5c-13.4,0-24.2-5.4-32.1-16.1
			l-0.8-1.1V315h-0.6V444.3L848.3,444.3z"></path>
	</g>
	<g>
		<path class="st0 MtzSyewZ_9" d="M935.8,468.1v-85.6h65.5V462h0.6V331.5c-2.2-3.1-4.7-5.8-7.6-8.2c-7.5-6.3-16-9.3-25.8-9.3s-18.3,3-25.8,9.3
			c-2.9,2.4-5.4,5.2-7.6,8.2v136.6 M1001.3,382h-65.5v-50.3l0.8-1.1c7.9-10.6,18.6-16,31.9-16c13.2,0,23.9,5.4,31.9,16l0.8,1.1
			L1001.3,382L1001.3,382z"></path>
	</g>
	<g>
		<path class="st0 MtzSyewZ_10" d="M1029.9,445.7c2.1,3,4.6,5.8,7.5,8.2c7.5,6.2,15.9,9.2,25.6,9.2h0.1c9.8,0,18.1-3,25.6-9.2
			c1.7-1.4,3.3-3,4.7-4.7l-0.5-0.2c-7.7,8.9-17.7,13.5-29.8,13.5h-0.1c-13.2-0.1-22.8-6.1-31.8-15.9l-0.8-1.1l-0.1-114.1l0.8-1.1
			c7.9-10.6,18.6-15.9,31.8-15.9c12.1,0,22.2,4.6,29.9,13.5l0.5-0.2c-1.4-1.7-3-3.2-4.7-4.7c-7.5-6.2-15.9-9.2-25.7-9.2
			s-18.2,3-25.7,9.2c-2.9,2.4-5.4,5.1-7.5,8.2L1029.9,445.7L1029.9,445.7z"></path>
	</g>
	<g>
		<path class="st0 MtzSyewZ_11" d="M1190.4,468.2l-0.2-153.2h-0.6v81.6l-7-5.7c-7.6-6.3-16.1-9.3-26-9.3s-18.4,3.1-26,9.3l-7,5.7v-81.5h-0.6V462
			h0.6v-62.5l0.9-1.1c8-10.7,18.8-16.1,32.1-16.1c13.3,0,24.1,5.4,32.1,16.1l0.9,1.1l0.2,68.8"></path>
	</g>
	<g>
		<path class="st0 MtzSyewZ_12" d="M1217.7,462h67.1v-0.6h-66.5v-79.3h47.6v-0.6h-47.6v-48.6l0.8-1.1c8-10.7,18.8-16.1,32.1-16.1h31.4V315h-31.5
			c-9.8,0-18.3,3.1-25.9,9.4c-2.9,2.4-5.4,5.2-7.6,8.3L1217.7,462L1217.7,462z"></path>
	</g>
	<g>
		<path class="st0 MtzSyewZ_13" d="M1380.4,468.1l0.2-54.5l-0.3-2.9c-0.8-8.1-3.9-15.5-9.1-21.8c-1.1-1.3-2.4-2.6-3.7-3.9l-3.4-3.2l3.5-3.1
			c1.5-1.3,2.8-2.7,4-4.2l0.1-0.1c6.3-7.6,9.4-16.1,9.4-25.9c0-9.9-3.1-18.4-9.4-26c-2.4-2.9-5.2-5.4-8.3-7.6h-50.5v147h0.6V382
			h49.4l1.1,0.9c10.5,8,15.9,18.8,15.9,32l-0.2,53.2 M1363.5,381.4h-50v-65.7h49.8l1.1,0.8c10.7,8,16.1,18.8,16.1,32.1
			c0,13.2-5.3,23.9-15.9,31.9L1363.5,381.4z"></path>
	</g>
	<g>
		<path class="st0 MtzSyewZ_14" d="M1407.5,462h67.1v-0.6h-66.5v-79.3h47.6v-0.6h-47.6v-48.6l0.8-1.1c8-10.7,18.8-16.1,32.1-16.1h31.4V315H1441
			c-9.8,0-18.3,3.1-25.9,9.4c-2.9,2.4-5.4,5.2-7.6,8.3V462z"></path>
	</g>
</g>
<path class="st0 MtzSyewZ_15" d="M55.4,267.4h1468.3v245.8H54.3V267.4h1"></path>
<style data-made-with="vivus-instant">.MtzSyewZ_0{stroke-dasharray:618 620;stroke-dashoffset:619;animation:MtzSyewZ_draw 5333ms ease 0ms forwards;}.MtzSyewZ_1{stroke-dasharray:820 822;stroke-dashoffset:821;animation:MtzSyewZ_draw 5333ms ease 177ms forwards;}.MtzSyewZ_2{stroke-dasharray:405 407;stroke-dashoffset:406;animation:MtzSyewZ_draw 5333ms ease 355ms forwards;}.MtzSyewZ_3{stroke-dasharray:630 632;stroke-dashoffset:631;animation:MtzSyewZ_draw 5333ms ease 533ms forwards;}.MtzSyewZ_4{stroke-dasharray:690 692;stroke-dashoffset:691;animation:MtzSyewZ_draw 5333ms ease 711ms forwards;}.MtzSyewZ_5{stroke-dasharray:439 441;stroke-dashoffset:440;animation:MtzSyewZ_draw 5333ms ease 888ms forwards;}.MtzSyewZ_6{stroke-dasharray:307 309;stroke-dashoffset:308;animation:MtzSyewZ_draw 5333ms ease 1066ms forwards;}.MtzSyewZ_7{stroke-dasharray:691 693;stroke-dashoffset:692;animation:MtzSyewZ_draw 5333ms ease 1244ms forwards;}.MtzSyewZ_8{stroke-dasharray:405 407;stroke-dashoffset:406;animation:MtzSyewZ_draw 5333ms ease 1422ms forwards;}.MtzSyewZ_9{stroke-dasharray:820 822;stroke-dashoffset:821;animation:MtzSyewZ_draw 5333ms ease 1600ms forwards;}.MtzSyewZ_10{stroke-dasharray:521 523;stroke-dashoffset:522;animation:MtzSyewZ_draw 5333ms ease 1777ms forwards;}.MtzSyewZ_11{stroke-dasharray:749 751;stroke-dashoffset:750;animation:MtzSyewZ_draw 5333ms ease 1955ms forwards;}.MtzSyewZ_12{stroke-dasharray:629 631;stroke-dashoffset:630;animation:MtzSyewZ_draw 5333ms ease 2133ms forwards;}.MtzSyewZ_13{stroke-dasharray:832 834;stroke-dashoffset:833;animation:MtzSyewZ_draw 5333ms ease 2311ms forwards;}.MtzSyewZ_14{stroke-dasharray:629 631;stroke-dashoffset:630;animation:MtzSyewZ_draw 5333ms ease 2488ms forwards;}.MtzSyewZ_15{stroke-dasharray:3431 3433;stroke-dashoffset:3432;animation:MtzSyewZ_draw 5333ms ease 2666ms forwards;}@keyframes MtzSyewZ_draw{100%{stroke-dashoffset:0;}}@keyframes MtzSyewZ_fade{0%{stroke-opacity:1;}96.72131147540983%{stroke-opacity:1;}100%{stroke-opacity:0;}}</style></svg>
